<svg width="31" height="33" viewBox="0 0 31 33" fill="none" xmlns="http://www.w3.org/2000/svg">
<path fill-rule="evenodd" clip-rule="evenodd" d="M7.40625 0.900879C8.04483 0.900879 8.5625 1.44535 8.5625 2.11699V4.54922H22.4375V2.11699C22.4375 1.44535 22.9552 0.900879 23.5938 0.900879C24.2323 0.900879 24.75 1.44535 24.75 2.11699V4.54922H25.9062C28.4606 4.54922 30.5312 6.72712 30.5312 9.41368V27.6554C30.5312 30.342 28.4606 32.5199 25.9062 32.5199H5.09375C2.53943 32.5199 0.46875 30.342 0.46875 27.6554V9.41368C0.46875 6.72712 2.53943 4.54922 5.09375 4.54922H6.25V2.11699C6.25 1.44535 6.76767 0.900879 7.40625 0.900879ZM28.2188 15.4943C28.2188 14.151 27.1834 13.062 25.9062 13.062H5.09375C3.81659 13.062 2.78125 14.151 2.78125 15.4943V27.6554C2.78125 28.9987 3.81659 30.0876 5.09375 30.0876H25.9062C27.1834 30.0876 28.2188 28.9987 28.2188 27.6554V15.4943Z" fill="#A5A5A7"/>
</svg>
